<?xml version="1.0" encoding="UTF-8" standalone="no"?>
<!-- Created with Inkscape (http://www.inkscape.org/) -->

<svg
   width="480"
   height="320"
   viewBox="0 0 127 84.666669"
   version="1.1"
   id="svg5"
   inkscape:version="1.1 (c68e22c387, 2021-05-23)"
   sodipodi:docname="catalog.svg"
   inkscape:export-filename="C:\Users\user\AndroidStudioProjects\Explainarium\app\src\main\assets\catalog_sport.png"
   inkscape:export-xdpi="96"
   inkscape:export-ydpi="96"
   xmlns:inkscape="http://www.inkscape.org/namespaces/inkscape"
   xmlns:sodipodi="http://sodipodi.sourceforge.net/DTD/sodipodi-0.dtd"
   xmlns="http://www.w3.org/2000/svg"
   xmlns:svg="http://www.w3.org/2000/svg">
  <sodipodi:namedview
     id="namedview7"
     pagecolor="#ffffff"
     bordercolor="#666666"
     borderopacity="1.0"
     inkscape:pageshadow="2"
     inkscape:pageopacity="0.0"
     inkscape:pagecheckerboard="0"
     inkscape:document-units="mm"
     showgrid="false"
     units="px"
     inkscape:zoom="2.60625"
     inkscape:cx="131.99041"
     inkscape:cy="112.03837"
     inkscape:window-width="1858"
     inkscape:window-height="1058"
     inkscape:window-x="54"
     inkscape:window-y="-8"
     inkscape:window-maximized="1"
     inkscape:current-layer="layer1"
     inkscape:snap-global="false" />
  <defs
     id="defs2" />
  <g
     inkscape:label="sport"
     inkscape:groupmode="layer"
     id="layer1"
     style="display:inline">
    <path
       style="fill:#dcaeba;fill-opacity:1;stroke:none;stroke-width:0.529167;stroke-linecap:round;stroke-linejoin:round"
       d="m 51.615071,41.651318 -5.564235,-5.282502 -3.099069,1.901701 -3.028636,1.549535 -2.887768,0.704331 h -3.169502 l -5.071205,-0.493032 -5.212069,-1.197367 -3.028635,-0.704334 -4.226003,3.873836 -5.634671,4.437303 -4.0953631,2.771688 c 1.3197442,3.857714 8.8521861,11.228028 8.8521861,11.228028 z"
       id="path1799"
       sodipodi:nodetypes="cccccccccccccc" />
    <path
       style="fill:#cc7187;fill-opacity:1;stroke-width:0.529167;stroke-linecap:round;stroke-linejoin:round"
       d="M 10.830501,60.017428 102.56933,17.652967 c 0,0 21.392,45.015688 -26.403728,59.148261 -32.297842,9.55005 -65.335101,-16.7838 -65.335101,-16.7838 z"
       id="path975"
       sodipodi:nodetypes="ccsc" />
    <path
       style="opacity:1;fill:none;fill-opacity:1;stroke:#270011;stroke-width:0.529167;stroke-linecap:butt;stroke-linejoin:round;stroke-miterlimit:4;stroke-dasharray:none;stroke-opacity:1"
       d="M 9.435992,60.714682 102.76854,17.584487"
       id="path1752" />
    <path
       style="fill:#b78a94;fill-opacity:1;stroke:none;stroke-width:0.529167;stroke-linecap:round;stroke-linejoin:round"
       d="m 67.427368,50.56114 0.563464,-2.852549 1.901703,-5.951622 1.866485,-3.73297 1.126935,-2.148218 0.563467,-0.915633 0.774766,-0.246517 0.493032,0.281733 0.246518,1.091719 0.281734,2.324301 1.972135,-5.951622 2.183434,-4.683819 0.528251,-0.704334 0.493033,-0.10565 0.633902,0.457817 0.457816,0.95085 0.246515,1.303018 0.774769,-1.162151 3.028635,-4.261219 1.514316,-1.514318 1.162154,-0.563467 0.669115,0.352167 0.493035,1.162151 0.176083,1.619967 2.394736,-3.592102 3.662534,-3.979486 1.796053,-1.514318 c 0,0 14.262752,-10.6593152 21.165232,-9.9663229 6.64346,0.6669875 -1.76083,15.2488269 -1.76083,15.2488269 l -3.87384,2.500385 -5.17685,2.641252 -2.92299,1.091717 2.39474,0.457817 2.00735,0.704334 0.66912,0.739551 -0.35217,0.845201 -2.5356,2.077783 -6.83204,3.380804 -4.613391,1.936917 -4.085137,1.373452 2.253869,0.915633 1.4791,0.915633 0.598686,0.8452 -0.211302,0.739551 -1.197366,0.950851 -3.627321,1.936919 -4.824685,2.113 -5.845972,2.218653 -4.472519,1.443884 -7.360288,1.267801 z"
       id="path1337"
       sodipodi:nodetypes="cccccccccccccccccccccccccccsccccccccccccccccccccccc" />
    <path
       style="opacity:1;fill:none;fill-opacity:1;stroke:#270011;stroke-width:0.529167;stroke-linecap:butt;stroke-linejoin:round;stroke-miterlimit:4;stroke-dasharray:none;stroke-opacity:1"
       d="m 67.756384,49.11037 c 0.398431,-4.781176 5.13015,-14.501034 6.374898,-14.443138 0.907855,0.04223 1.045886,3.735293 1.045886,3.735293 0,0 3.762608,-11.959594 5.179729,-11.368636 1.398038,0.583 1.403661,2.714187 1.403661,2.714187 0,0 4.816508,-8.04078 6.759532,-7.441768 0.98195,0.302724 1.050412,2.898179 1.050412,2.898179 5.478431,-7.769412 8.068235,-9.064314 8.068235,-9.064314"
       id="path1756"
       sodipodi:nodetypes="cscscscc" />
    <path
       style="opacity:1;fill:none;fill-opacity:1;stroke:#270011;stroke-width:0.529167;stroke-linecap:round;stroke-linejoin:round;stroke-miterlimit:4;stroke-dasharray:none;stroke-opacity:1"
       d="M 83.967559,40.444487 93.455205,28.815271"
       id="path1427"
       sodipodi:nodetypes="cc" />
    <path
       style="opacity:1;fill:none;fill-opacity:1;stroke:#270011;stroke-width:0.529167;stroke-linecap:butt;stroke-linejoin:round;stroke-miterlimit:4;stroke-dasharray:none;stroke-opacity:1"
       d="M 79.506692,50.032892 C 87.2263,47.5925 95.776367,43.490879 95.847237,42.144353 95.926847,40.631719 91.5508,39.256585 91.5508,39.256585 c 8.66589,-2.78902 18.23997,-7.50747 18.32476,-9.462243 0.0665,-1.533171 -5.14163,-1.972135 -5.14163,-1.972135 5.22942,-1.543921 12.31376,-6.455702 12.31376,-6.455702"
       id="path1754"
       sodipodi:nodetypes="cscscc" />
    <path
       style="opacity:1;fill:none;fill-opacity:1;stroke:#270011;stroke-width:0.529167;stroke-linecap:butt;stroke-linejoin:round;stroke-miterlimit:4;stroke-dasharray:none;stroke-opacity:1"
       d="M 5.3520702,49.857428 C 13.569717,44.80233 20.691678,38.103702 20.691678,38.103702"
       id="path1758"
       sodipodi:nodetypes="cc" />
    <path
       style="opacity:1;fill:none;fill-opacity:1;stroke:#270011;stroke-width:0.529167;stroke-linecap:butt;stroke-linejoin:round;stroke-miterlimit:4;stroke-dasharray:none;stroke-opacity:1"
       d="m 46.091677,36.310761 c 0,0 3.959109,4.141234 4.980393,4.880785"
       id="path1760"
       sodipodi:nodetypes="cc" />
    <path
       style="opacity:1;fill:#cc7187;fill-opacity:1;stroke:#270011;stroke-width:0.529;stroke-linecap:round;stroke-linejoin:round;stroke-miterlimit:4;stroke-dasharray:none;stroke-opacity:1"
       d="m 20.691678,38.103702 c 0,0 10.877702,3.094794 16.335687,2.390588 3.962613,-0.511269 9.064312,-4.183529 9.064312,-4.183529 -7.254638,-2.535602 -13.51783,-2.641756 -16.933333,-2.191374 -1.956456,0.257986 -4.980214,1.58958 -8.466666,3.984315 z"
       id="path1762"
       sodipodi:nodetypes="cscsc" />
    <path
       style="opacity:1;fill:none;fill-opacity:1;stroke:#270011;stroke-width:0.529167;stroke-linecap:butt;stroke-linejoin:round;stroke-miterlimit:4;stroke-dasharray:none;stroke-opacity:1"
       d="m 12.772854,44.652919 c 0,0 -3.659855,-0.164306 -6.7235289,-1.270001"
       id="path1764"
       sodipodi:nodetypes="cc" />
    <path
       style="opacity:1;fill:#4295a8;fill-opacity:1;stroke:#270011;stroke-width:0.529167;stroke-linecap:butt;stroke-linejoin:round;stroke-miterlimit:4;stroke-dasharray:none;stroke-opacity:1"
       d="m 17.032283,23.796457 c 0,0 -1.689239,-0.541069 -3.556886,-0.316951 0,0 0.0011,2.752599 3.310369,4.930337 3.579156,2.355335 6.372451,0.847704 6.372451,0.847704 -0.07471,-1.095687 -1.477331,-3.101572 -1.477331,-3.101572 0,0 -1.404567,1.209337 -3.239936,0.03522 -1.790623,-1.145492 -1.408667,-2.394738 -1.408667,-2.394738 z"
       id="path1766"
       sodipodi:nodetypes="ccsccsc" />
    <path
       style="opacity:1;fill:#a8ab4f;fill-opacity:1;stroke:#270011;stroke-width:0.529167;stroke-linecap:butt;stroke-linejoin:round;stroke-miterlimit:4;stroke-dasharray:none;stroke-opacity:1"
       d="m 17.032283,23.796457 c 0.244838,-0.719721 2.080389,-1.794749 3.697752,-0.986068 1.826114,0.913057 0.950851,3.345586 0.950851,3.345586 -1.065947,1.395883 -4.87702,7.94e-4 -4.648603,-2.359518 z"
       id="path1768"
       sodipodi:nodetypes="cscc" />
    <ellipse
       style="opacity:1;fill:none;fill-opacity:1;stroke:#000000;stroke-width:0.529167;stroke-linecap:butt;stroke-linejoin:round;stroke-miterlimit:4;stroke-dasharray:none;stroke-opacity:1"
       id="path1872"
       cx="93.516068"
       cy="-28.26479"
       rx="1.8427451"
       ry="0.92137253"
       transform="rotate(33.956675)" />
    <path
       style="opacity:1;fill:none;fill-opacity:1;stroke:#000000;stroke-width:0.529167;stroke-linecap:butt;stroke-linejoin:round;stroke-miterlimit:4;stroke-dasharray:none;stroke-opacity:1"
       d="M 93.953246,28.018408 94.999128,26.77331"
       id="path2044" />
    <path
       style="opacity:1;fill:none;fill-opacity:1;stroke:#290012;stroke-width:0.529167;stroke-linecap:round;stroke-linejoin:round;stroke-miterlimit:4;stroke-dasharray:none;stroke-opacity:1"
       d="m 37.704481,17.281369 v 2.359518"
       id="path18101" />
    <path
       style="display:inline;opacity:1;fill:#a7aa4f;fill-opacity:1;stroke:none;stroke-width:0.529167;stroke-linecap:round;stroke-linejoin:round;stroke-miterlimit:4;stroke-dasharray:none;stroke-opacity:1"
       d="m 45.276068,69.120338 22.116081,-18.735281 4.296436,0.422601 3.239937,-2.817336 4.507735,0.633902 -23.383882,22.045646 -1.344618,1.300499 -2.091767,0.946274 -1.792941,0.398431 -1.14549,-0.298823 -0.796861,-0.896472 -0.448236,-1.045882 -0.946274,0.597649 -1.942354,0.448233 -1.444313,-0.249018 -1.14549,-0.846667 -0.498041,-1.494118 0.348628,-1.693333 0.547844,-1.095687 0.498039,-0.348626 0.547843,1.693334 z"
       id="path18857" />
    <path
       style="display:inline;opacity:1;fill:none;fill-opacity:1;stroke:#270011;stroke-width:0.529167;stroke-linecap:butt;stroke-linejoin:round;stroke-miterlimit:4;stroke-dasharray:none;stroke-opacity:1"
       d="m 51.07207,69.978212 23.806274,-22.013333 4.830979,0.597646 -24.40392,22.810195 c -1.303018,1.197367 -5.179608,3.287059 -6.424705,0.896472 -1.2451,-2.390587 0.172543,-4.649372 0.348626,-4.631764 1.267801,2.042568 1.543923,3.796663 5.229412,3.597447"
       id="path1415"
       sodipodi:nodetypes="ccccscc" />
    <path
       style="display:inline;opacity:1;fill:none;fill-opacity:1;stroke:#270011;stroke-width:0.529167;stroke-linecap:butt;stroke-linejoin:round;stroke-miterlimit:4;stroke-dasharray:none;stroke-opacity:1"
       d="M 71.767368,50.783333 67.407757,50.305664 45.407975,69.094344"
       id="path1417"
       sodipodi:nodetypes="ccc" />
    <path
       style="display:inline;opacity:1;fill:#4296a8;fill-opacity:1;stroke:none;stroke-width:0.529167;stroke-linecap:round;stroke-linejoin:round;stroke-miterlimit:4;stroke-dasharray:none;stroke-opacity:1"
       d="m 56.369327,42.813468 0.598683,-2.148218 0.950849,-2.077783 1.021284,-1.619967 -0.809982,-1.514319 -0.669118,-1.901701 0.03522,-1.831268 0.352168,-2.218651 0.986068,-1.690402 0.950849,-1.021284 0.316952,-0.2113 0.669115,1.408668 0.598684,1.408668 1.549535,-0.176084 0.73955,-0.2113 0.457819,-1.303018 0.669115,-1.091717 0.457817,-0.739551 h 0.4226 l 0.986068,0.704334 0.73955,1.303018 0.915635,2.00735 1.021284,3.310369 0.387385,1.760836 2.817333,-0.281733 h 2.465168 l 2.641253,0.03522 2.077784,0.07043 1.267801,1.443887 1.655186,2.042567 1.0565,1.79605 0.809984,1.619969 0.352166,1.0565 v 0.528251 l -0.387384,0.598684 -0.563467,0.316949 -0.774767,-0.176082 -0.704334,-0.598684 -1.091718,-1.549535 -2.958201,-4.68382 -2.852552,0.281733 -2.535602,0.211302 -1.619967,0.211299 1.338233,1.303017 1.267801,2.500386 0.07044,1.37345 -0.316952,1.267801 -0.528249,0.528251 -0.950851,0.387382 -2.077784,0.598686 -5.634672,1.443884 0.528243,5.317718 0.4226,5.810754 0.176084,1.443884 -0.31695,0.915634 -0.809984,0.457817 -0.986068,0.03522 -0.31695,-0.809984 -0.52825,-2.922985 -0.633901,-8.768956 -0.809984,3.627319 -1.760834,6.691171 -0.493034,1.443884 -0.6339,0.422601 -0.845201,0.176083 -0.704334,-0.493034 0.03522,-0.95085 0.457817,-3.556886 1.972135,-8.945039 0.95085,-0.739551 1.443885,-0.73955 0.07043,-0.774768 0.281734,-0.95085 0.563467,-0.950851 -2.218652,-3.768186 -0.4226,1.584751 -0.52825,1.866485 -0.845201,1.408667 -2.500385,2.324302 -1.831268,1.619968 -1.303018,0.563467 -0.915634,0.140867 -0.598683,-0.669117 v -1.091721 l 0.598683,-0.8452 2.359519,-1.866485 z"
       id="path18264" />
    <path
       style="opacity:1;fill:none;fill-opacity:1;stroke:#270011;stroke-width:0.529167;stroke-linecap:butt;stroke-linejoin:round;stroke-miterlimit:4;stroke-dasharray:none;stroke-opacity:1"
       d="m 69.300305,37.804879 c 2.643147,0.228908 9.064313,-0.647451 9.064313,-0.647451 1.056501,1.866485 4.133726,6.374903 4.133726,6.374903 0.311275,0.348627 1.00853,0.958723 1.743138,0.448233 0.709706,-0.547843 0.710659,-1.299736 0.448233,-1.892549 -1.207742,-2.728255 -3.078691,-5.454692 -4.980392,-7.321177 0,0 -5.453995,-0.429158 -11.106274,0.398434"
       id="path1407"
       sodipodi:nodetypes="ccccscc" />
    <path
       style="display:inline;opacity:1;fill:none;fill-opacity:1;stroke:#270011;stroke-width:0.529167;stroke-linecap:butt;stroke-linejoin:round;stroke-miterlimit:4;stroke-dasharray:none;stroke-opacity:1"
       d="m 48.382657,70.08792 c -4.419694,0.369776 -4.321803,-3.697146 -4.603537,-3.697146 -0.387384,0 -2.174028,2.853314 -0.527732,4.841599 1.170234,1.413327 3.723985,0.88184 5.172528,-0.126274"
       id="path1419"
       sodipodi:nodetypes="ccsc" />
    <path
       style="display:inline;opacity:1;fill:none;fill-opacity:1;stroke:#270011;stroke-width:0.529167;stroke-linecap:butt;stroke-linejoin:round;stroke-miterlimit:4;stroke-dasharray:none;stroke-opacity:1"
       d="m 58.891285,49.209977 -3.93451,-1.593726"
       id="path1421" />
    <path
       style="display:inline;opacity:1;fill:none;fill-opacity:1;stroke:#270011;stroke-width:0.529167;stroke-linecap:round;stroke-linejoin:round;stroke-miterlimit:4;stroke-dasharray:none;stroke-opacity:1"
       d="m 50.374816,45.673897 2.789018,1.095687"
       id="path1423"
       sodipodi:nodetypes="cc" />
    <path
       style="display:inline;opacity:1;fill:none;fill-opacity:1;stroke:#270011;stroke-width:0.529167;stroke-linecap:butt;stroke-linejoin:round;stroke-miterlimit:4;stroke-dasharray:none;stroke-opacity:1"
       d="m 58.891285,37.05782 c 0,0 -1.944336,2.927725 -2.490195,5.727452 -0.933242,0.493034 -4.034118,3.237253 -4.034118,3.237253 0,0 -1.627476,1.471934 -0.747059,2.440393 0.74302,0.948142 2.490195,-0.298823 2.490195,-0.298823 0.6339,-0.264125 4.581962,-4.233334 4.581962,-4.233334 0,0 1.270733,-2.416135 1.693333,-4.581961"
       id="path1413"
       sodipodi:nodetypes="ccccccc" />
    <path
       style="display:inline;opacity:1;fill:none;fill-opacity:1;stroke:#270011;stroke-width:0.529167;stroke-linecap:butt;stroke-linejoin:round;stroke-miterlimit:4;stroke-dasharray:none;stroke-opacity:1"
       d="m 61.680303,45.673897 c 0,0 -1.897553,0.6957 -2.390587,1.593726 -0.404992,0.845201 -2.477744,11.915588 -2.477744,11.915588 0,0 -0.402129,1.822952 0.908922,1.942353 1.055556,0.09613 1.593093,-1.070784 1.730685,-1.618627 l 2.533592,-10.513784"
       id="path1411"
       sodipodi:nodetypes="cccscc" />
    <path
       style="display:inline;opacity:1;fill:none;fill-opacity:1;stroke:#270011;stroke-width:0.529167;stroke-linecap:butt;stroke-linejoin:round;stroke-miterlimit:4;stroke-dasharray:none;stroke-opacity:1"
       d="m 71.591285,37.705272 c 2.648317,3.440667 2.949371,5.358052 2.041959,6.773333 -0.771961,1.120588 -9.12657,2.776568 -9.12657,2.776568 l 1.033433,12.139705 c 0.09961,0.747059 -0.137482,1.741895 -1.058333,1.942352 -0.912048,0.198541 -1.332255,-0.622547 -1.481667,-1.469214 L 61.680303,45.673897 c -0.08561,-1.651739 0.645449,-2.912759 2.440393,-3.336861 l 5.360696,-0.752583"
       id="path1409"
       sodipodi:nodetypes="ccccscccc" />
    <path
       style="opacity:1;fill:none;fill-opacity:1;stroke:#270011;stroke-width:0.529167;stroke-linecap:butt;stroke-linejoin:round;stroke-miterlimit:4;stroke-dasharray:none;stroke-opacity:1"
       d="m 62.62658,43.28331 -4.681569,-8.018431 c -1.760835,-5.10642 1.689794,-8.668904 2.041961,-8.616079 0.334559,0.07043 1.26823,2.636588 1.444313,2.689413 0.2113,0.03522 1.862856,-0.207762 2.091764,-0.348629 0.2113,-0.10565 1.410565,-3.225688 1.938815,-3.137646 2.6846,0.718106 4.236872,9.064313 4.236872,9.064313"
       id="path1405"
       sodipodi:nodetypes="ccccccc" />
    <ellipse
       style="opacity:1;fill:none;fill-opacity:1;stroke:#270011;stroke-width:0.529167;stroke-linecap:butt;stroke-linejoin:round;stroke-miterlimit:4;stroke-dasharray:none;stroke-opacity:1"
       id="path1637"
       cx="62.532246"
       cy="32.28368"
       rx="0.56346703"
       ry="0.63390046" />
    <ellipse
       style="opacity:1;fill:none;fill-opacity:1;stroke:#270011;stroke-width:0.529167;stroke-linecap:butt;stroke-linejoin:round;stroke-miterlimit:4;stroke-dasharray:none;stroke-opacity:1"
       id="path1635"
       cx="60.947495"
       cy="32.424545"
       rx="0.5282504"
       ry="0.59868377" />
    <ellipse
       style="opacity:1;fill:#4296a8;fill-opacity:0.254032;stroke:none;stroke-width:0.529167;stroke-linecap:butt;stroke-linejoin:round;stroke-miterlimit:4;stroke-dasharray:none;stroke-opacity:1"
       id="ellipse5628"
       cx="63.307014"
       cy="29.748077"
       rx="9.3676405"
       ry="9.4380732" />
    <ellipse
       style="opacity:1;fill:none;fill-opacity:1;stroke:#270011;stroke-width:0.529167;stroke-linecap:butt;stroke-linejoin:round;stroke-miterlimit:4;stroke-dasharray:none;stroke-opacity:1"
       id="path1059"
       cx="63.307014"
       cy="29.748077"
       rx="9.3676405"
       ry="9.4380732" />
    <path
       style="display:inline;opacity:1;fill:none;fill-opacity:1;stroke:#270011;stroke-width:0.529167;stroke-linecap:round;stroke-linejoin:round;stroke-miterlimit:4;stroke-dasharray:none;stroke-opacity:1"
       d="m 80.904618,44.628015 1.892549,-2.390587"
       id="path1425" />
    <path
       style="opacity:1;fill:none;fill-opacity:1;stroke:#270011;stroke-width:0.529167;stroke-linecap:round;stroke-linejoin:round;stroke-miterlimit:4;stroke-dasharray:none;stroke-opacity:1"
       d="M 38.88424,18.461128 H 36.524722"
       id="path5274" />
    <path
       style="opacity:1;fill:none;fill-opacity:1;stroke:#270011;stroke-width:0.529167;stroke-linecap:round;stroke-linejoin:round;stroke-miterlimit:4;stroke-dasharray:none;stroke-opacity:1"
       d="m 46.270755,6.9221533 v 2.359518"
       id="path5516" />
    <path
       style="opacity:1;fill:none;fill-opacity:1;stroke:#270011;stroke-width:0.529167;stroke-linecap:round;stroke-linejoin:round;stroke-miterlimit:4;stroke-dasharray:none;stroke-opacity:1"
       d="M 47.450514,8.1019123 H 45.090996"
       id="path5518" />
    <path
       style="opacity:1;fill:none;fill-opacity:1;stroke:#270011;stroke-width:0.529167;stroke-linecap:round;stroke-linejoin:round;stroke-miterlimit:4;stroke-dasharray:none;stroke-opacity:1"
       d="m 56.131932,16.384898 v 2.359518"
       id="path5520" />
    <path
       style="opacity:1;fill:none;fill-opacity:1;stroke:#270011;stroke-width:0.529167;stroke-linecap:round;stroke-linejoin:round;stroke-miterlimit:4;stroke-dasharray:none;stroke-opacity:1"
       d="M 57.311691,17.564657 H 54.952173"
       id="path5522" />
    <path
       style="opacity:1;fill:none;fill-opacity:1;stroke:#270011;stroke-width:0.529167;stroke-linecap:round;stroke-linejoin:round;stroke-miterlimit:4;stroke-dasharray:none;stroke-opacity:1"
       d="M 69.180559,8.6154862 V 10.975004"
       id="path5524" />
    <path
       style="opacity:1;fill:none;fill-opacity:1;stroke:#270011;stroke-width:0.529167;stroke-linecap:round;stroke-linejoin:round;stroke-miterlimit:4;stroke-dasharray:none;stroke-opacity:1"
       d="M 70.360318,9.7952452 H 68.0008"
       id="path5526" />
    <path
       style="opacity:1;fill:none;fill-opacity:1;stroke:#270011;stroke-width:0.529167;stroke-linecap:round;stroke-linejoin:round;stroke-miterlimit:4;stroke-dasharray:none;stroke-opacity:1"
       d="m 87.209579,15.986467 v 2.359518"
       id="path5528" />
    <path
       style="opacity:1;fill:none;fill-opacity:1;stroke:#270011;stroke-width:0.529167;stroke-linecap:round;stroke-linejoin:round;stroke-miterlimit:4;stroke-dasharray:none;stroke-opacity:1"
       d="M 88.389338,17.166226 H 86.02982"
       id="path5530" />
    <path
       style="opacity:1;fill:none;fill-opacity:1;stroke:#270011;stroke-width:0.529167;stroke-linecap:round;stroke-linejoin:round;stroke-miterlimit:4;stroke-dasharray:none;stroke-opacity:1"
       d="m 19.250935,7.2798289 v 2.359518"
       id="path5577" />
    <path
       style="opacity:1;fill:none;fill-opacity:1;stroke:#270011;stroke-width:0.529167;stroke-linecap:round;stroke-linejoin:round;stroke-miterlimit:4;stroke-dasharray:none;stroke-opacity:1"
       d="M 20.430694,8.4595879 H 18.071176"
       id="path5579" />
  </g>
</svg>
